<?xml version="1.0" encoding="utf-8"?>
<!-- Generator: Adobe Illustrator 16.0.0, SVG Export Plug-In . SVG Version: 6.00 Build 0)  -->
<!DOCTYPE svg PUBLIC "-//W3C//DTD SVG 1.1//EN" "http://www.w3.org/Graphics/SVG/1.1/DTD/svg11.dtd">
<svg version="1.1" id="Layer_1" xmlns="http://www.w3.org/2000/svg" xmlns:xlink="http://www.w3.org/1999/xlink" x="0px" y="0px"
	 width="1500px" height="1500px" viewBox="0 0 1500 1500" enable-background="new 0 0 1500 1500" xml:space="preserve">
<path fill-rule="evenodd" clip-rule="evenodd" fill="#FEFEFE" d="M1501.5,1.5C1003.685,1.501,505.868,1.501,8.053,1.502
	c-6.551,0-6.551,0-6.551,6.551C1.501,505.868,1.5,1003.685,1.5,1501.5c-0.308-0.218-1.043,0.506-1.011-0.5
	c0.043-1.332,0.011-2.667,0.011-4C0.5,999.667,0.505,502.334,0.407,5C0.406,1.252,1.25,0.406,5,0.407
	c497.333,0.098,994.667,0.092,1492,0.154C1498.463,0.562,1500.391-0.592,1501.5,1.5z"/>
<path fill-rule="evenodd" clip-rule="evenodd" fill="#231F1F" d="M751.155,1246.431c211.653,0,423.308-0.002,634.961,0.004
	c13.514,0.002,18.63,3.384,19.289,12.466c0.528,7.291-2.636,11.908-9.817,13.242c-3.787,0.702-7.721,0.863-11.587,0.863
	c-422.011,0.036-844.021,0.036-1266.032,0.006c-3.548,0-7.147-0.113-10.632-0.698c-7-1.176-10.915-5.303-10.751-12.668
	c0.171-7.739,4.566-11.892,11.845-12.997c3.491-0.529,7.117-0.212,10.682-0.212C329.792,1246.431,540.473,1246.431,751.155,1246.431
	z"/>
<path fill-rule="evenodd" clip-rule="evenodd" fill="#231F1F" d="M610.691,255.492c-0.231-25.456-4.814-46.14-12.823-66.192
	c-4.399-11.014,1.056-20.577,11.183-20.386c6.199,0.116,10.337,3.491,12.554,9.082c19.163,48.351,23.746,96.164-2.765,143.946
	c-20.196,36.399-22.658,73.616-0.578,110.678c5.5,9.232,3.837,16.493-3.939,20.764c-7.173,3.943-13.638,1.398-19.08-7.639
	c-26.34-43.745-23.71-88.251-2.055-132.465C602.833,293.585,612.376,274.352,610.691,255.492z"/>
<path fill-rule="evenodd" clip-rule="evenodd" fill="#231F1F" d="M925.532,247.236c1.147,19.934-6.771,42.531-18.388,64.325
	c-19.57,36.705-22.63,73.696-0.8,110.843c5.401,9.19,3.908,17.042-3.399,21.083c-7.118,3.937-13.806,1.383-19.192-7.515
	c-26.213-43.297-25.972-88.544-2.545-131.389c22.618-41.371,21.561-81.31,5.554-123.131c-5.208-13.608-0.024-23.247,12.069-22.333
	c6.634,0.503,9.355,5.035,11.578,10.271C920.266,192.612,925.339,216.828,925.532,247.236z"/>
<path fill-rule="evenodd" clip-rule="evenodd" fill="#231F1F" d="M757.766,196.536c-0.837-21.431-4.463-42.318-12.85-62.249
	c-4.116-9.781-1.936-16.785,6.037-20.329c7.381-3.28,14.326,0.047,18.053,9.614c15.422,39.589,22.088,79.785,6.404,120.981
	c-3.087,8.108-7.622,15.661-11.426,23.501c-17.418,35.882-20.702,71.681,0.444,107.449c5.762,9.745,4.398,17.938-3.126,21.952
	c-7.174,3.825-13.869,0.883-19.608-8.739c-25.955-43.503-23.338-87.604-1.584-131.459
	C749.706,237.917,758.71,218.803,757.766,196.536z"/>
<path fill="#231F1F" d="M1364.473,1198.055c-1.072-24.914-3.394-49.708-7.34-74.373c-19.146-119.669-69.851-224.305-150.742-314.146
	c-81.232-90.217-180.976-150.711-298.274-182.176c-19.208-5.152-19.304-5.162-21.767-24.111
	c-10.993-84.554-105.345-144.197-193.15-103.371c-47.534,22.103-74.207,61.174-78.711,114.17c-0.439,5.171-0.752,8.63-7.299,10.229
	c-133.769,32.699-244.59,102.271-331.605,208.946c-86.309,105.808-131.814,227.442-137.989,363.809
	c-0.862,19.038,2.245,22.152,21.264,22.152c197.037,0.002,394.075,0.002,591.112,0.002c198.01,0,396.02,0,594.031-0.003
	C1361.508,1219.183,1365.227,1215.619,1364.473,1198.055z M852.579,615.662c-67.597-11.823-135.253-11.194-202.839,0.156
	c-7.09,1.191-9.306-0.319-8.188-7.7c8.301-54.7,55.294-95.429,109.772-94.87c54.896,0.562,101.441,40.896,109.225,94.466
	C861.536,614.503,860.262,617.005,852.579,615.662z"/>
<path fill-rule="evenodd" clip-rule="evenodd" fill="#FEFEFE" d="M224.673,1138.332c-9.288-0.302-14.235-8.189-11.525-18.964
	c13.662-54.305,32.044-106.959,56.685-157.266c23.752-48.495,52.842-93.406,92.179-130.98
	c11.473-10.958,23.577-21.259,37.476-29.104c8.157-4.605,15.104-3.061,19.477,3.708c4.385,6.792,2.741,13.553-5.591,18.791
	c-35.347,22.223-60.982,53.756-83.965,87.686c-42.904,63.337-69.182,133.903-89.009,207.2c-1.007,3.725-2.015,7.5-3.569,11.012
	C234.413,1135.88,230.008,1138.505,224.673,1138.332z"/>
<path fill-rule="evenodd" clip-rule="evenodd" fill="#FEFEFE" d="M418.032,948.741c19.805-27.966,48.852-27.845,66.296-0.188
	c5.694-7.926,11.838-15.078,20.751-19.209c25.101-11.627,49.259,2.414,50.339,29.945c0.75,19.089,0.676,38.238,0.141,57.337
	c-0.228,8.135,1.276,12.151,10.372,10.774c3.707-0.562,7.724,0.371,11.517,1.073c3.13,0.581,5.251,2.81,5.178,6.115
	c-0.076,3.37-2.463,5.447-5.582,5.708c-17.75,1.478-35.523,2.584-53.306,0.427c-4.007-0.486-6.826-2.56-6.746-6.835
	c0.087-4.729,3.343-7.439,7.629-6.981c11.072,1.183,13.038-5.347,13.207-14.104c0.31-16.189,1.876-32.39,0.127-48.558
	c-0.942-8.697-1.831-18.292-11.246-22.178c-9.91-4.091-19.148-0.496-26.94,6.193c-8.604,7.383-14.713,15.896-13.912,28.359
	c0.768,11.94,0.431,23.976,0.051,35.952c-0.182,5.769,1.267,8.076,7.518,7.905c5.884-0.16,15.163-2.796,14.99,7.022
	c-0.176,10.013-9.585,6.108-15.291,6.432c-10.337,0.581-20.73,0.396-31.094,0.237c-4.471-0.07-9.686-0.018-10.275-6.31
	c-0.553-5.897,3.478-8.032,8.479-8.358c6.814-0.448,8.913-4.904,8.85-10.523c-0.177-15.87-0.049-31.795-1.388-47.584
	c-1.379-16.242-11.02-21.787-26.492-16.766c-13.225,4.29-19.566,14.238-21.853,27.176c-2.612,14.781-0.739,29.749-1.32,44.622
	c-0.184,4.688,2.454,5.274,6.131,5.126c4.549-0.184,9.158-0.129,13.397,1.664c3.123,1.32,5.449,3.799,5.069,7.521
	c-0.401,3.954-3.377,5.399-6.879,5.405c-16.201,0.034-32.401,0.02-48.6-0.211c-4.655-0.066-7.027-3.018-6.82-7.669
	c0.209-4.651,3.387-6.024,7.369-5.709c7.583,0.597,10.167-3.299,10.879-10.305c1.998-19.679,3.794-39.299,1.838-59.125
	c-0.735-7.455-3.09-11.128-11.333-10.555c-5.491,0.384-14.485,0.898-14.881-5.137c-0.452-6.933,8.646-5.47,13.973-6.731
	c2.503-0.594,5.123-0.797,7.702-0.965C415.673,928.456,415.673,928.473,418.032,948.741z"/>
<path fill-rule="evenodd" clip-rule="evenodd" fill="#FEFEFE" d="M752.239,945.699c9.014-13.84,19.94-21.09,34.406-22.483
	c21.762-2.099,37.062,9.118,41.111,30.766c3.961,21.184,1.561,42.662,1.665,63.996c0.04,8.288,1.389,12.901,10.73,11.029
	c0.623-0.124,1.302-0.072,1.941,0.002c5.971,0.686,14.254-0.135,14.407,7.916c0.179,9.3-8.723,6.573-14.214,6.809
	c-12.614,0.545-25.264,0.358-37.898,0.4c-4.566,0.016-9.685,0.329-10.537-5.85c-0.828-6.003,3.654-7.726,8.374-8.549
	c4.903-0.854,8.502-2.607,8.894-8.341c1.455-21.366,2.651-42.792-2.822-63.75c-5.646-21.62-25.214-26.712-41.462-11.241
	c-8.531,8.125-13.07,18.246-14.996,29.753c-1.941,11.594-0.958,23.275-1.499,34.904c-0.275,5.96,2.363,7.14,7.487,6.86
	c4.18-0.229,8.411,0.112,12.596,0.492c4.658,0.421,6.892,3.253,6.622,7.881c-0.256,4.434-3.102,6.163-7.175,6.181
	c-16.845,0.07-33.691,0.118-50.537,0.091c-4.269-0.008-7.944-1.327-7.893-6.455c0.047-4.738,3.332-7.476,7.57-7.094
	c12.408,1.119,13.542-6.429,13.64-15.864c0.19-18.14,0.604-36.285,1.43-54.405c0.401-8.801-1.74-13.559-11.806-12.381
	c-5.375,0.63-10.96-0.43-16.441-0.838c-2.325-0.173-4.682-0.754-4.895-3.645c-0.191-2.597,1.413-4.366,3.75-5.052
	c13.906-4.089,28.133-3.652,42.343-2.513c3.117,0.249,3.569,3.454,3.859,6.037C751.395,934.803,751.688,939.271,752.239,945.699z"/>
<path fill-rule="evenodd" clip-rule="evenodd" fill="#FEFEFE" d="M643.824,917.417c25.41,0.074,44.843,15.631,48.43,38.764
	c2.145,13.828-2.989,19.856-16.964,19.933c-20.413,0.112-40.832,0.555-61.237,0.173c-7.169-0.133-8.619,2.389-8.29,8.92
	c1.307,26.018,23.845,43.534,49.095,37.204c13.412-3.361,21.853-12.02,23.769-26.266c0.75-5.578,1.58-11.721,9.477-10.591
	c8.355,1.199,7.409,7.745,6.634,13.588c-3.725,28.072-26.329,43.408-59.374,40.419c-25.5-2.306-42.226-17.682-46.896-42.841
	c-2.034-10.966-2.097-21.809-0.145-32.816C593.498,934.755,614.133,917.33,643.824,917.417z"/>
<path fill-rule="evenodd" clip-rule="evenodd" fill="#FEFEFE" d="M960.268,1016.934c-11.671,18.812-26.548,25.952-45.542,24.036
	c-18.709-1.888-31.297-14.823-34.429-35.126c-3.132-20.309-1.121-40.768-1.571-61.155c-0.292-13.287-0.105-13.259-13.579-13.333
	c-4.203-0.024-8.429-0.061-12.602-0.497c-2.239-0.235-4.507-1.396-4.963-3.981c-0.475-2.682,1.326-4.471,3.579-5.058
	c13.605-3.538,27.457-5.086,41.298-2.147c5.604,1.188,5.021,6.949,4.946,11.403c-0.287,17.172-0.9,34.338-1.119,51.511
	c-0.113,9.076,0.438,18.174,3.538,26.836c4.788,13.366,15.183,19.199,29.038,16.52c18.329-3.548,30.699-18.144,31.06-36.868
	c0.245-12.638,0.241-25.28,0.437-37.92c0.106-6.809-2.774-10.238-9.921-9.924c-5.819,0.257-11.665,0.056-17.498-0.057
	c-2.627-0.049-5.407-0.332-6.059-3.584c-0.613-3.052,1.21-5.2,3.835-5.958c13.929-4.021,28.192-4.381,42.296-1.791
	c6.111,1.123,5.066,7.544,5.052,12.27c-0.08,23.658-0.39,47.317-0.462,70.978c-0.039,13.319,0.098,13.274,13.11,13.599
	c4.408,0.11,10-0.814,10.328,5.767c0.3,6.062-5.06,6.905-9.452,7.703c-5.084,0.921-10.277,1.445-15.442,1.679
	c-14.525,0.655-15.025,0.123-15.859-14.605C960.147,1024.79,960.268,1022.339,960.268,1016.934z"/>
<path fill-rule="evenodd" clip-rule="evenodd" fill="#FEFEFE" d="M1006.415,978.865c0.044-35.922,24.725-60.637,60.418-60.506
	c33.427,0.123,56.779,24.554,56.839,59.461c0.061,35.413-25.243,61.097-60.168,61.073
	C1029.523,1038.873,1006.371,1014.528,1006.415,978.865z"/>
<path fill-rule="evenodd" clip-rule="evenodd" fill="#231F1F" d="M639.646,961.608c-8.725,0-17.452-0.072-26.175,0.034
	c-3.656,0.046-6.488,0.072-5.062-5.145c3.063-11.213,16.635-22.12,29.6-23.368c15.875-1.525,28.42,4.563,34.192,16.599
	c4.159,8.672,2.972,10.784-6.372,10.895c-8.727,0.103-17.454,0.021-26.183,0.021C639.646,960.967,639.646,961.288,639.646,961.608z"
	/>
<path fill-rule="evenodd" clip-rule="evenodd" fill="#231F1F" d="M1105.718,978.453c-0.326,28.604-23.537,49.706-48.903,44.463
	c-23.67-4.895-37.394-31.56-30.188-58.656c6.079-22.859,28.975-35.825,51.36-29.091
	C1095.21,940.351,1105.963,957.134,1105.718,978.453z"/>
<path fill="none" enable-background="new    " d="z"/>
</svg>
